<svg width="442" height="163" viewBox="0 0 442 163" fill="none" xmlns="http://www.w3.org/2000/svg">
<g opacity="0.5">
<g opacity="0.490005">
<g opacity="0.139999">
<path d="M441.091 151.058C441.091 157.253 342.35 162.273 220.546 162.273C98.7416 162.273 0 157.253 0 151.058C0 144.864 98.7416 139.844 220.546 139.844C342.35 139.844 441.091 144.864 441.091 151.058Z" fill="url(#paint0_radial_114_43)"/>
</g>
<g opacity="0.139999">
<path d="M170.944 154.439C170.944 158.766 132.677 162.273 85.4722 162.273C38.2669 162.273 0 158.766 0 154.439C0 150.112 38.2669 146.605 85.4722 146.605C132.677 146.605 170.944 150.112 170.944 154.439Z" fill="url(#paint1_radial_114_43)"/>
</g>
<g opacity="0.139999">
<path d="M236.429 151.068C236.429 154.424 212.498 157.145 182.977 157.145C153.457 157.145 129.525 154.424 129.525 151.068C129.525 147.712 153.457 144.993 182.977 144.993C212.498 144.993 236.429 147.712 236.429 151.068Z" fill="url(#paint2_radial_114_43)"/>
</g>
<g opacity="0.139999">
<path d="M402.878 144.854C402.878 148.209 378.947 150.93 349.426 150.93C319.906 150.93 295.975 148.209 295.975 144.854C295.975 141.498 319.906 138.779 349.426 138.779C378.947 138.779 402.878 141.498 402.878 144.854Z" fill="url(#paint3_radial_114_43)"/>
</g>
<g opacity="0.139999">
<path d="M304.449 150.928C304.449 154.284 274.773 157.004 238.164 157.004C201.556 157.004 171.879 154.284 171.879 150.928C171.879 147.572 201.556 144.853 238.164 144.853C274.773 144.853 304.449 147.572 304.449 150.928Z" fill="url(#paint4_radial_114_43)"/>
</g>
<g opacity="0.139999">
<path d="M415.707 150.928C415.707 154.284 371.101 157.004 316.077 157.004C261.053 157.004 216.447 154.284 216.447 150.928C216.447 147.572 261.053 144.853 316.077 144.853C371.101 144.853 415.707 147.572 415.707 150.928Z" fill="url(#paint5_radial_114_43)"/>
</g>
</g>
</g>
<g opacity="0.800003">
<path fill-rule="evenodd" clip-rule="evenodd" d="M300.326 19.9532C299.517 19.9178 297.199 21.0776 296.953 21.0423C296.707 21.0069 293.089 20.8667 290.753 21.2007C288.417 21.5341 287.24 21.7974 286.73 21.7096C286.221 21.6219 283.938 22.6055 282.462 23.0626C280.987 23.5191 279.019 23.0273 277.72 23.6245C276.42 24.2218 276.034 25.1001 275.753 25.3457C275.472 25.5919 270.729 29.6314 268.727 33.9879C266.724 38.3443 263.949 44.5267 263.668 45.0185C263.387 45.5104 260.998 47.1261 260.331 48.6369C259.663 50.1478 259.242 50.5518 259.119 51.3594C258.995 52.1675 258.732 52.5009 258.644 52.9403C258.557 53.3792 257.626 54.8199 257.485 55.2417C257.344 55.6634 257.187 55.6805 256.853 56.5764C256.519 57.4723 256.256 58.3158 256.203 58.7723C256.15 59.2288 256.625 59.4744 256.625 59.4744C256.625 59.4744 256.264 60.8183 256.256 61.4685C256.247 62.1182 256.765 62.259 256.765 62.259C256.765 62.259 256.537 62.8124 256.826 63.2165C257.116 63.6205 257.872 63.4798 258.091 63.2165C258.311 62.9526 258.644 62.5223 258.644 62.5223C258.644 62.5223 258.477 63.1019 259.049 63.2512C259.619 63.4005 261.551 60.6347 262.588 59.5103C263.624 58.3859 264.239 57.8593 264.239 57.947C264.239 58.0348 264.731 59.0185 265.486 59.2117C266.241 59.4049 266.979 59.0886 266.839 58.7198C266.698 58.3511 265.961 58.1402 265.908 56.9987C265.855 55.8566 267.208 54.0477 267.349 52.6429C267.489 51.2374 267.155 49.6918 267.349 48.8307C267.542 47.9701 268.842 47.4259 270.563 44.4047C272.285 41.3836 273.479 40.1184 274.99 38.9598C276.5 37.8 282.683 32.6537 283.104 32.0741C283.526 31.4939 283.685 31.4768 283.685 31.4768C283.685 31.4768 284.756 31.9333 286.53 32.2143C288.304 32.4953 288.62 32.3551 288.62 32.3551C288.62 32.3551 285.968 38.2217 283.931 44.8966C281.893 51.5714 280.242 58.9843 279.47 60.881C278.697 62.7776 277.151 63.9374 277.151 63.9374C277.151 63.9374 276.553 64.0776 276.273 64.2537C275.991 64.4292 269.879 69.0661 268.579 71.947C267.28 74.8273 267.21 81.3614 265.593 83.4695C263.978 85.577 260.956 86.9123 258.076 92.3921C255.195 97.8723 253.72 101.808 250.136 103.915C246.553 106.023 241.354 108.342 238.614 112.557C235.874 116.773 232.501 121.691 230.499 123.799C228.496 125.906 225.686 127.839 225.528 128.032C225.37 128.225 225.299 128.383 225.299 128.383C225.299 128.383 224.79 128.647 224.562 128.542C224.333 128.436 220.628 128.506 220.258 128.576C219.89 128.647 218.52 128.295 217.448 128.805C216.377 129.314 215.464 131.457 215.358 133.038C215.253 134.619 216.94 138.659 216.729 143.506C216.518 148.355 217.396 150.076 218.379 151.095C219.364 152.113 221.998 154.573 224 154.819C226.003 155.064 227.865 154.713 228.251 153.764C228.638 152.816 228.497 152.64 227.9 151.973C227.303 151.306 226.46 149.163 226.354 148.425C226.249 147.687 226.495 144.139 226.881 143.506C227.268 142.874 228.147 142.172 228.568 141.328C228.989 140.485 229.376 140.169 229.13 139.642C228.884 139.115 228.849 138.975 228.849 138.975C228.849 138.975 229.411 137.078 229.692 136.586C229.973 136.094 230.817 135.672 231.589 134.619C232.362 133.565 233.838 129.63 236.789 127.663C239.74 125.696 242.972 123.307 246.625 120.005C250.279 116.702 255.127 116 258.429 112.979C261.731 109.957 260.888 110.239 263.347 108.342C265.806 106.444 273.079 101.386 277.224 96.9593C281.369 92.5328 287.412 87.7552 287.764 87.6145C288.115 87.4743 291.101 89.0546 295.563 89.0199C300.024 88.9845 303.607 89.1954 306.628 89.2307C309.649 89.2655 310.317 89.7226 310.317 89.7226C310.317 89.7226 304.661 94.5355 303.081 97.3104C301.5 100.086 301.359 100.438 300.481 101.421C299.603 102.405 295.563 106.884 294.386 107.867C293.21 108.851 292.7 109.15 292.7 109.325C292.7 109.501 292.648 109.641 292.648 109.641C292.648 109.641 291.102 110.766 290.997 110.783C290.891 110.801 290.61 110.695 290.399 110.889C290.189 111.082 289.784 111.31 289.627 111.328C289.468 111.345 289.205 111.046 288.731 111.24C288.257 111.433 285.675 113.734 285.112 114.156C284.55 114.577 283.286 115.034 282.548 116.088C281.81 117.142 282.127 118.653 282.688 119.425C283.25 120.198 289.012 123.781 291.295 125.784C293.579 127.787 296.161 130.948 298.761 132.019C301.36 133.091 304.03 133.284 305.066 132.757C306.103 132.23 306.805 131.37 306.542 130.86C306.278 130.351 306.191 130.474 306.085 130.07C305.98 129.666 305.523 129.068 305.383 128.981C305.242 128.893 303.099 126.012 301.554 124.783C300.008 123.553 299.376 121.938 299.341 121.375C299.305 120.813 298.92 118.987 299.165 117.933C299.411 116.878 299.622 116.316 299.236 115.965C298.849 115.614 298.603 115.403 298.603 115.403L298.99 114.771C298.99 114.771 299.376 115.016 299.622 114.56C299.868 114.103 303.311 109.326 307.948 106.304C312.585 103.284 315.185 101.457 317.644 99.2783C320.103 97.1001 322.386 95.5551 324.284 93.2361C326.181 90.9177 326.954 87.9313 326.954 87.1585C326.954 86.3857 324.53 81.7136 318.945 78.4115C313.359 75.1088 308.265 72.685 303.909 71.5611C299.553 70.4367 297.515 69.4536 297.515 69.4536C297.515 69.4536 299.166 66.2917 300.15 63.7624C301.134 61.2326 302.926 59.3713 302.926 59.3713C302.926 59.3713 304.682 61.9706 306.298 63.938C307.914 65.9053 308.16 66.2216 309.108 65.8352C310.057 65.4488 323.934 58.212 327.236 54.9094C330.538 51.6073 331.311 51.1508 332.435 50.8345C333.56 50.5188 336.334 49.1481 337.775 47.3569C339.215 45.5651 339.567 45.0732 339.918 44.7222C340.269 44.3705 341.991 43.1059 342.957 41.9644C343.923 40.8228 344.221 40.4188 343.923 39.9617C343.624 39.5052 343.466 39.4174 342.851 39.8392C342.237 40.2609 340.515 41.8413 340.006 42.2983C339.497 42.7548 339.145 42.7896 339.303 42.4739C339.462 42.1576 342.641 39.2772 343.379 38.3813C344.116 37.4854 344.398 36.9759 344.046 36.6072C343.695 36.2384 343.555 36.2031 343.01 36.6072C342.465 37.0112 339.532 39.3998 339.532 39.3998C339.532 39.3998 342.167 36.4487 342.536 35.7113C342.904 34.9738 342.483 34.201 341.903 34.2358C341.324 34.2711 339.374 36.414 338.601 37.3629C337.828 38.3112 336.844 39.5759 336.493 39.4003C336.142 39.2248 336.248 38.8378 336.353 38.6629C336.459 38.4868 338.321 34.833 338.918 33.5336C339.515 32.2337 339.339 31.6364 338.848 31.531C338.355 31.4255 338.04 32.3391 337.126 33.3575C336.213 34.3765 334.632 37.5384 334.632 37.2922C334.632 37.0466 334.842 35.6759 334.14 35.501C333.438 35.3249 333.262 35.9221 333.262 36.5194C333.262 37.1167 333.297 37.5384 332.805 38.452C332.313 39.365 331.048 40.2085 330.381 41.6834C329.713 43.1589 329.362 45.7589 328.941 46.1453C328.519 46.5317 321.774 50.6066 320.088 51.4147C318.402 52.2228 316.646 51.8011 314.818 51.8364C312.991 51.8717 312.043 52.363 312.043 52.363C312.043 52.363 313.027 48.6745 312.289 46.0398C311.551 43.4051 309.83 41.403 309.83 41.1921C309.83 40.9813 310.603 38.3813 309.83 35.2901C309.057 32.1989 308.495 30.6527 308.565 29.8799C308.635 29.1071 309.444 27.3506 311.025 25.805C312.605 24.2594 313.062 24.1187 313.94 24.435C314.818 24.7513 317.032 25.1377 317.875 24.7159C318.718 24.2948 318.578 23.1002 319.034 22.5731C319.491 22.0464 320.07 22.0989 320.229 21.6247C320.387 21.1506 320.088 20.9921 320.211 20.8519C320.334 20.7112 320.457 20.7288 320.492 20.3954C320.527 20.0614 320.316 19.5343 320.404 19.2533C320.492 18.9723 320.914 19.0248 321.159 18.7791C321.406 18.5329 321.862 18.6737 322.284 18.2343C322.706 17.7955 322.266 17.0398 321.669 15.9336C321.072 14.8268 320.931 13.6499 321.001 13.3866C321.072 13.1227 321.634 12.9119 321.704 11.8934C321.774 10.875 321.072 10.1717 320.756 8.80223C320.44 7.43216 320.65 6.44849 319.912 4.97298C316.882 -1.08749 308.6 -1.3394 304.245 2.75943C301.856 5.0083 302.242 8.90709 302.242 11.0152C302.242 13.1227 302.875 14.8091 302.172 16.4955C301.469 18.1813 300.326 19.9532 300.326 19.9532Z" fill="#FC916A"/>
</g>
<path fill-rule="evenodd" clip-rule="evenodd" d="M368.707 15.8029C368.587 16.244 367.504 18.7305 366.381 19.733C366.381 19.733 366.105 19.5347 365.583 19.5147C365.062 19.4948 363.196 21.0592 362.274 21.5003C361.352 21.9414 360.309 21.6604 358.705 22.904C357.101 24.147 355.215 26.6335 353.972 27.5556C352.729 28.4783 352.408 27.5961 349.159 28.4384C345.911 29.2807 341.098 32.89 338.491 35.0557C335.884 37.2214 335.283 37.2618 334.48 37.663C333.678 38.0637 333.357 38.2244 332.716 39.5073C332.074 40.7907 331.432 42.7963 329.989 47.7693C328.545 52.7424 329.227 63.0493 329.227 64.3732C329.227 65.6965 328.865 65.8971 327.863 67.9825C326.86 70.0678 327.141 72.3941 327.221 72.7549C327.302 73.1162 326.86 73.958 326.54 74.961C326.219 75.9635 326.9 76.2445 327.382 76.3647C327.863 76.485 328.384 75.1212 328.465 74.8807C328.545 74.6402 328.786 74.7205 328.746 75.3218C328.705 75.9231 328.104 76.8862 328.024 77.8482C327.943 78.8108 329.508 79.3722 329.427 79.4525C329.347 79.5329 328.064 83.9446 324.775 88.3563C321.486 92.7674 321.085 103.516 321.085 103.516C321.085 103.516 320.443 104.318 318.999 105.04C317.555 105.762 310.577 102.794 307.449 102.393C304.321 101.992 304.241 102.393 301.594 103.034C298.947 103.676 287.797 103.035 286.835 102.233C285.872 101.43 283.787 99.1043 282.503 97.8209C281.22 96.5374 280.578 95.8957 278.573 96.1368C276.568 96.3773 276.087 96.7785 274.322 100.307C272.557 103.837 268.788 107.366 266.301 111.056C263.814 114.746 263.694 118.555 263.935 120.2C264.176 121.844 264.777 122.486 266.702 122.205C268.627 121.924 272.598 117.032 275.486 114.785C278.373 112.539 281.581 112.299 281.581 112.299C281.581 112.299 283.426 111.657 284.469 111.096C285.511 110.534 285.191 110.775 285.672 111.016C286.153 111.256 288.961 110.695 294.335 111.256C299.709 111.817 306.928 113.181 312.142 114.625C317.355 116.069 322.328 117.111 324.094 116.871C325.857 116.63 330.51 110.374 336.767 103.395C343.023 96.4172 345.59 88.5563 345.59 88.5563C345.59 88.5563 349.841 93.0478 357.3 98.1816C364.76 103.315 366.685 104.759 367.727 106.764C368.77 108.769 368.449 112.379 368.61 116.309C368.77 120.24 369.652 124.411 371.176 127.94C372.701 131.469 372.821 141.275 372.821 141.595C372.821 141.916 372.761 141.937 372.54 142.217C372.32 142.498 372.48 144.183 372.48 144.183C372.48 144.183 372.44 144.423 371.959 145.025C371.478 145.626 371.397 147.271 371.317 147.752C371.237 148.233 371.156 149.477 370.956 149.918C370.756 150.359 369.994 151.562 370.114 153.126C370.234 154.69 371.197 154.329 373.964 154.771C376.731 155.212 384.672 154.369 387.319 154.369C389.966 154.369 395.901 151.923 396.944 151.401C397.987 150.88 398.348 149.316 398.508 148.674C398.669 148.033 397.987 148.072 397.947 147.752C397.906 147.431 395.981 146.308 394.979 146.509C393.976 146.709 392.372 146.99 389.765 146.79C387.158 146.588 386.076 144.503 385.354 144.022C384.632 143.54 384.552 143.3 383.669 142.739C382.787 142.177 382.225 143.861 381.985 143.54C381.744 143.22 381.343 141.696 381.343 141.696C381.343 141.696 381.383 141.295 381.503 140.974C381.624 140.653 381.263 139.891 380.701 138.648C380.139 137.404 379.659 125.253 379.258 116.67C378.857 108.087 380.139 105.12 380.22 104.317C380.3 103.515 380.06 100.708 378.295 98.943C376.53 97.1786 374.124 91.2429 369.552 85.8686C364.98 80.4949 357.319 73.917 357.319 73.917C357.319 73.917 356.959 72.8341 358.122 70.6685C359.285 68.5028 360.207 67.1789 361.611 64.6524C363.015 62.126 364.178 59.118 364.178 59.118C364.178 59.118 364.699 58.9573 367.025 58.4364C369.351 57.9149 379.838 54.105 379.838 54.105C379.838 54.105 380.822 53.7437 381.924 53.8041C383.027 53.864 388.942 53.4628 389.704 52.9413C390.467 52.4204 390.005 52.2796 390.026 52.0995C390.046 51.9189 390.346 51.598 390.567 51.1369C390.787 50.6759 390.607 49.7731 390.607 49.7731C390.607 49.7731 390.867 49.1514 390.947 48.6703C391.028 48.1888 390.667 47.7078 390.627 47.4872C390.586 47.2667 391.028 46.805 391.068 46.4038C391.108 46.0032 390.928 45.5221 390.045 45.2207C389.163 44.9203 388.561 44.3988 387.438 44.4387C386.315 44.4786 385.834 44.5989 384.991 45.5216C384.149 46.4437 381.802 48.1284 381.442 48.5495C381.081 48.9707 380.038 48.9109 377.772 49.352C375.506 49.7931 369.911 49.6124 369.911 49.6124C369.911 49.6124 370.793 47.4866 371.596 46.1228C372.398 44.759 373.481 43.8369 373.882 41.07C374.283 38.3025 372.558 33.1089 372.518 32.9681C372.477 32.8279 372.458 31.9856 372.798 30.8628C373.139 29.7395 376.709 26.8723 377.25 26.7321C377.792 26.5919 380.037 27.0125 381.1 27.233C382.163 27.4542 382.564 26.9726 382.825 26.2705C383.086 25.5689 383.807 24.787 383.807 24.787C383.807 24.787 384.148 24.7664 384.309 24.5864C384.469 24.4057 384.449 24.0848 384.409 23.9047C384.369 23.7241 384.088 23.4836 384.088 23.4836C384.088 23.4836 384.71 23.4232 385.231 23.1428C385.752 22.8618 385.311 21.9391 385.351 21.7391C385.392 21.5385 385.672 21.3777 386.274 21.2974C386.875 21.2176 387.316 20.7765 387.036 19.6931C386.755 18.6108 386.675 16.6053 386.875 16.1636C387.076 15.7225 387.838 15.2016 387.797 14.5194C387.757 13.8378 389 10.5893 387.396 7.70154C384.362 2.23891 377.09 -0.395798 371.916 4.01192C369.75 5.85672 368.948 7.58127 369.028 10.3887C369.108 13.1961 368.827 15.3617 368.707 15.8029ZM342.193 57.9064C341.551 60.072 340.027 59.8315 337.781 63.0402C335.535 66.2482 335.214 67.3715 335.054 67.7721C334.894 68.1734 335.204 63.8312 335.444 62.3072C335.685 60.7833 337.008 54.6271 337.831 53.0832C338.653 51.5387 342.403 43.7383 342.403 43.7383C342.403 43.7383 343.726 43.899 344.969 43.658C344.969 43.658 345.321 44.7522 345.04 46.8774C344.76 49.0026 342.835 55.7407 342.193 57.9064Z" fill="#FC916A"/>
<g opacity="0.600006">
<path fill-rule="evenodd" clip-rule="evenodd" d="M221.206 25.6364C220.432 25.6028 218.211 26.713 217.976 26.6794C217.74 26.6457 214.274 26.5112 212.037 26.8309C209.798 27.1507 208.671 27.4031 208.183 27.3188C207.695 27.235 205.508 28.1771 204.095 28.6148C202.681 29.0519 200.797 28.5812 199.552 29.1534C198.307 29.725 197.937 30.5662 197.668 30.8021C197.399 31.0375 192.855 34.9072 190.938 39.0801C189.019 43.2524 186.361 49.175 186.092 49.6457C185.823 50.1171 183.535 51.6649 182.895 53.112C182.256 54.559 181.852 54.9459 181.734 55.7199C181.617 56.4938 181.364 56.8135 181.28 57.2341C181.196 57.6547 180.304 59.0345 180.17 59.4386C180.035 59.8426 179.884 59.8592 179.564 60.7169C179.244 61.5752 178.992 62.3833 178.942 62.8204C178.891 63.2576 179.345 63.4935 179.345 63.4935C179.345 63.4935 179 64.7804 178.992 65.4033C178.984 66.0256 179.48 66.1601 179.48 66.1601C179.48 66.1601 179.261 66.6907 179.539 67.0771C179.816 67.4641 180.54 67.3296 180.75 67.0771C180.96 66.8247 181.281 66.4126 181.281 66.4126C181.281 66.4126 181.12 66.9677 181.668 67.1108C182.214 67.2538 184.065 64.6043 185.058 63.5277C186.05 62.4506 186.639 61.9462 186.639 62.03C186.639 62.1143 187.11 63.0564 187.834 63.2416C188.557 63.4263 189.264 63.1236 189.129 62.7703C188.995 62.4169 188.288 62.2152 188.237 61.1215C188.187 60.0279 189.483 58.2948 189.618 56.9492C189.752 55.6031 189.433 54.1224 189.618 53.2978C189.802 52.4737 191.048 51.9522 192.697 49.0582C194.346 46.1641 195.49 44.9525 196.937 43.8423C198.384 42.7315 204.307 37.8018 204.71 37.2467C205.114 36.691 205.266 36.6745 205.266 36.6745C205.266 36.6745 206.292 37.1122 207.991 37.3812C209.691 37.6502 209.993 37.5163 209.993 37.5163C209.993 37.5163 207.453 43.1356 205.502 49.5295C203.55 55.9228 201.968 63.0233 201.228 64.8402C200.488 66.6577 199.007 67.7679 199.007 67.7679C199.007 67.7679 198.435 67.9024 198.166 68.0711C197.897 68.2392 192.042 72.6811 190.796 75.44C189.552 78.1996 189.484 84.4584 187.937 86.4776C186.389 88.4968 183.495 89.7751 180.735 95.0246C177.976 100.274 176.563 104.043 173.13 106.063C169.698 108.081 164.718 110.302 162.093 114.341C159.469 118.378 156.239 123.089 154.32 125.109C152.402 127.127 149.71 128.978 149.559 129.164C149.407 129.348 149.34 129.5 149.34 129.5C149.34 129.5 148.852 129.752 148.633 129.651C148.414 129.551 144.864 129.617 144.511 129.685C144.158 129.752 142.846 129.415 141.819 129.904C140.793 130.391 139.918 132.445 139.817 133.959C139.716 135.472 141.332 139.342 141.13 143.986C140.928 148.63 141.769 150.279 142.711 151.255C143.654 152.231 146.177 154.586 148.096 154.822C150.013 155.058 151.797 154.721 152.167 153.812C152.537 152.904 152.402 152.735 151.831 152.096C151.259 151.457 150.451 149.404 150.35 148.697C150.249 147.991 150.485 144.592 150.855 143.986C151.225 143.381 152.067 142.708 152.47 141.9C152.874 141.092 153.244 140.789 153.009 140.285C152.773 139.78 152.739 139.645 152.739 139.645C152.739 139.645 153.278 137.828 153.547 137.357C153.816 136.886 154.624 136.482 155.364 135.472C156.105 134.463 157.519 130.694 160.345 128.81C163.172 126.925 166.267 124.637 169.767 121.474C173.267 118.311 177.911 117.638 181.074 114.744C184.237 111.85 183.429 112.119 185.785 110.302C188.14 108.485 195.106 103.639 199.077 99.3992C203.048 95.1591 208.836 90.5826 209.173 90.4482C209.509 90.3137 212.369 91.8279 216.644 91.7943C220.917 91.7601 224.35 91.9624 227.243 91.996C230.137 92.0297 230.776 92.4674 230.776 92.4674C230.776 92.4674 225.359 97.0774 223.845 99.7355C222.331 102.394 222.196 102.731 221.355 103.673C220.513 104.615 216.644 108.905 215.517 109.848C214.39 110.79 213.901 111.076 213.901 111.244C213.901 111.412 213.851 111.547 213.851 111.547C213.851 111.547 212.37 112.624 212.27 112.641C212.169 112.658 211.9 112.557 211.697 112.742C211.496 112.927 211.109 113.146 210.957 113.163C210.806 113.179 210.554 112.893 210.099 113.078C209.645 113.264 207.172 115.468 206.634 115.871C206.095 116.275 204.884 116.713 204.177 117.722C203.47 118.732 203.773 120.178 204.312 120.919C204.85 121.659 210.368 125.091 212.556 127.01C214.743 128.928 217.217 131.956 219.707 132.983C222.197 134.009 224.754 134.194 225.747 133.69C226.74 133.185 227.413 132.36 227.16 131.872C226.908 131.384 226.824 131.502 226.723 131.115C226.622 130.729 226.185 130.156 226.05 130.072C225.915 129.988 223.863 127.229 222.382 126.051C220.902 124.873 220.296 123.325 220.262 122.787C220.228 122.249 219.859 120.499 220.095 119.489C220.33 118.479 220.532 117.941 220.162 117.605C219.791 117.268 219.556 117.066 219.556 117.066L219.926 116.461C219.926 116.461 220.296 116.696 220.532 116.258C220.768 115.821 224.066 111.245 228.507 108.351C232.949 105.457 235.439 103.707 237.795 101.621C240.15 99.5343 242.338 98.0542 244.155 95.8333C245.972 93.6117 246.712 90.7519 246.712 90.0116C246.712 89.2713 244.391 84.7957 239.041 81.6327C233.69 78.4691 228.811 76.1473 224.638 75.0707C220.466 73.9936 218.514 73.0521 218.514 73.0521C218.514 73.0521 220.096 70.023 221.038 67.6003C221.98 65.1776 223.696 63.3943 223.696 63.3943C223.696 63.3943 225.379 65.8843 226.927 67.769C228.475 69.6531 228.71 69.9558 229.618 69.5859C230.527 69.2154 243.819 62.2836 246.982 59.1206C250.146 55.9575 250.886 55.5198 251.963 55.2172C253.04 54.9146 255.698 53.6021 257.078 51.8861C258.458 50.1695 258.795 49.6982 259.131 49.3619C259.467 49.0257 261.116 47.814 262.042 46.7204C262.967 45.6267 263.253 45.2397 262.967 44.8026C262.681 44.3649 262.53 44.2811 261.94 44.6846C261.352 45.0887 259.703 46.603 259.215 47.0401C258.727 47.4778 258.39 47.5114 258.542 47.2082C258.694 46.9056 261.739 44.1461 262.445 43.2884C263.152 42.4301 263.422 41.9422 263.085 41.5889C262.749 41.2355 262.614 41.2019 262.093 41.5889C261.571 41.9758 258.761 44.264 258.761 44.264C258.761 44.264 261.285 41.4373 261.638 40.7306C261.992 40.0245 261.588 39.2841 261.033 39.3178C260.477 39.3514 258.61 41.4042 257.87 42.3127C257.129 43.2211 256.187 44.4322 255.85 44.2646C255.514 44.0959 255.615 43.726 255.716 43.5579C255.817 43.3898 257.601 39.8894 258.173 38.6447C258.744 37.3994 258.576 36.8278 258.106 36.7264C257.634 36.6255 257.332 37.5003 256.457 38.4766C255.582 39.4523 254.067 42.4808 254.067 42.2454C254.067 42.0095 254.269 40.697 253.596 40.5294C252.923 40.3607 252.755 40.9329 252.755 41.5045C252.755 42.0773 252.788 42.4808 252.317 43.3556C251.846 44.2304 250.635 45.0386 249.996 46.4514C249.356 47.8653 249.02 50.3553 248.616 50.7252C248.212 51.0956 241.751 54.9989 240.136 55.7729C238.52 56.5468 236.838 56.1433 235.088 56.177C233.338 56.2106 232.43 56.6813 232.43 56.6813C232.43 56.6813 233.372 53.1479 232.666 50.6243C231.959 48.1007 230.31 46.1824 230.31 45.9806C230.31 45.7789 231.05 43.2884 230.31 40.3271C229.57 37.3664 229.031 35.8852 229.099 35.1449C229.166 34.4045 229.94 32.7221 231.454 31.2421C232.968 29.7614 233.406 29.6264 234.247 29.9296C235.088 30.2322 237.208 30.6021 238.016 30.1986C238.824 29.7951 238.689 28.6507 239.126 28.1457C239.564 27.6414 240.119 27.6915 240.271 27.2373C240.422 26.7831 240.136 26.6315 240.254 26.497C240.371 26.3625 240.489 26.379 240.523 26.0599C240.557 25.7401 240.355 25.2352 240.439 24.9662C240.523 24.6966 240.927 24.7473 241.163 24.5114C241.398 24.276 241.836 24.4105 242.239 23.9899C242.643 23.5693 242.223 22.8461 241.65 21.7861C241.078 20.726 240.944 19.5987 241.011 19.3463C241.078 19.0938 241.617 18.892 241.684 17.9158C241.751 16.9401 241.079 16.267 240.776 14.9551C240.472 13.6426 240.675 12.6999 239.968 11.2871C237.065 5.48198 229.132 5.24091 224.96 9.16704C222.672 11.3207 223.042 15.0554 223.042 17.0746C223.042 19.0938 223.648 20.7089 222.974 22.3241C222.302 23.9392 221.206 25.6364 221.206 25.6364Z" fill="#FC916A"/>
</g>
<g opacity="0.399994">
<path fill-rule="evenodd" clip-rule="evenodd" d="M141.253 45.437C141.253 45.437 138.471 47.1587 133.103 50.9019C127.736 54.6445 122.439 61.4948 118.626 65.0967C114.812 68.6985 112.957 68.6108 112.957 68.6108C112.957 68.6108 112.64 68.4341 111.934 68.7162C111.227 68.9989 107.29 70.7822 104.465 73.1125C101.64 75.4429 99.945 84.6242 98.4621 86.8138C96.9792 89.0029 96.061 88.9322 91.8237 92.2514C87.5858 95.5706 82.007 105.034 79.3232 107.506C76.6395 109.977 74.8745 111.249 69.7892 113.226C64.7044 115.204 60.2551 122.478 56.2298 127.633C52.2045 132.789 49.5207 134.166 49.2027 134.484C48.8853 134.802 48.9907 134.59 48.1433 134.52C47.2958 134.449 43.8706 135.65 43.4113 135.791C42.9525 135.932 41.7169 135.438 40.8335 135.826C39.9507 136.215 39.1039 138.651 39.0332 139.392C38.9625 140.134 39.1039 140.452 39.1392 141.476C39.1745 142.5 39.333 145.996 39.492 146.631C39.651 147.267 39.598 147.673 39.6333 148.203C39.6686 148.733 39.863 148.997 39.916 149.403C39.969 149.81 40.022 150.145 39.8453 150.886C39.6686 151.628 39.9507 151.964 39.9507 152.635C39.9507 153.306 40.1981 153.2 40.3394 153.729C40.4808 154.259 40.6221 154.718 41.0455 155.283C41.4696 155.848 41.5402 156.06 41.7163 156.554C41.893 157.049 42.423 157.296 42.7758 157.472C43.1291 157.649 43.4113 158.249 43.8706 158.638C44.3294 159.026 44.5414 158.92 45.0714 159.026C45.6009 159.132 45.5655 159.344 46.3777 159.309C47.1898 159.273 47.0131 159.238 47.6839 159.238C48.3553 159.238 51.8511 158.92 52.2746 158.708C52.698 158.496 53.6515 157.402 53.7928 156.802C53.9342 156.201 53.3694 155.848 53.3694 155.848C53.3694 155.848 53.122 155.53 52.6273 155.177C52.1332 154.824 50.403 154.259 50.1562 153.976C49.9089 153.694 49.9442 153.235 50.3676 152.246C50.7916 151.257 50.721 149.562 50.9683 149.174C51.2151 148.786 52.3452 147.726 52.698 147.197C53.0514 146.667 52.3806 145.961 52.3806 145.961C52.3806 145.961 52.5926 144.902 54.0755 142.324C54.3348 141.873 54.5166 141.549 54.6397 141.323C54.7873 141.293 55.0312 141.2 55.2757 140.911C55.6644 140.452 59.5484 135.12 61.102 133.708C62.6561 132.295 66.5395 127.917 75.2968 122.62C84.0541 117.324 78.828 120.219 82.8533 118.807C86.8792 117.394 88.2914 115.665 88.2914 115.665C88.2914 115.665 88.5382 115.523 89.845 114.887C91.1512 114.252 97.0835 110.332 103.016 105.671C108.948 101.01 119.118 94.7955 119.118 94.7955C119.118 94.7955 120.742 95.0069 124.203 96.2077C127.663 97.4085 132.607 97.9026 134.866 98.3267C137.126 98.7507 142.846 101.152 142.846 101.152C142.846 101.152 140.163 102.988 136.561 105.742C132.96 108.497 133.383 109.697 131.265 112.31C129.146 114.923 122.419 118.455 122.331 118.49C122.242 118.526 122.26 118.931 122.083 119.02C121.907 119.108 119.752 120.591 119.752 120.591C119.752 120.591 119.505 120.591 119.258 120.556C119.011 120.521 118.446 120.874 117.951 120.98C117.457 121.086 117.245 120.803 116.363 121.227C115.48 121.65 113.149 124.511 113.149 124.511C113.149 124.511 112.408 124.652 111.596 125.111C110.784 125.57 110.43 127.336 110.536 128.007C110.642 128.677 111.278 129.525 111.878 130.266C112.479 131.008 112.514 130.867 113.114 131.467C113.714 132.067 114.173 132.315 115.444 133.268C116.716 134.222 117.033 133.939 118.128 134.822C119.222 135.704 121.871 138.141 121.907 138.318C121.941 138.494 122.401 138.812 123.142 139.448C123.884 140.083 124.025 140.012 124.872 140.578C125.72 141.143 126.143 141.389 126.885 141.884C127.627 142.378 128.015 142.413 128.298 142.59C128.58 142.767 129.216 142.696 129.781 142.978C130.346 143.261 130.946 143.332 131.546 143.332C132.146 143.332 132.288 143.473 133.135 143.473C133.983 143.473 134.865 142.802 135.042 142.343C135.219 141.884 135.219 141.567 135.113 141.284C135.007 141.001 135.007 141.001 134.759 140.295C134.513 139.589 131.97 137.717 131.97 137.717C131.97 137.717 131.758 137.329 131.122 136.799C130.487 136.269 130.063 136.305 129.145 135.386C128.226 134.469 128.085 132.915 127.732 131.538C127.379 130.16 127.803 128.607 127.485 127.795C127.168 126.982 127.697 125.888 127.697 125.888C127.697 125.888 127.909 125.676 128.12 125.641C128.332 125.606 128.933 123.664 130.698 122.463C132.464 121.262 136.278 118.226 140.656 116.743C145.034 115.26 152.379 108.974 153.509 108.268C154.639 107.562 155.769 106.926 158.453 104.737C161.136 102.548 161.56 100.288 161.56 99.5468C161.56 98.8048 160.747 97.9927 159.688 96.157C158.629 94.3207 154.25 89.0941 152.202 87.7525C150.154 86.4109 140.973 80.938 139.349 80.726C137.724 80.514 134.582 78.643 134.582 78.643C134.582 78.643 136.877 76.524 138.466 75.7472C140.055 74.9705 141.785 74.9705 143.303 74.653C144.822 74.335 145.669 73.1695 145.669 73.1695C145.669 73.1695 145.705 73.0635 147.223 72.6401C148.741 72.2161 150.719 70.2037 150.719 70.2037C150.719 70.2037 150.719 70.1678 151.637 69.8857C152.555 69.603 155.45 68.3674 155.45 68.3674C155.45 68.3674 155.521 68.3674 155.697 68.9676C155.874 69.5682 158.204 74.865 159.405 78.0075C160.605 81.15 163.395 84.2931 164.984 84.8226C166.573 85.352 165.938 84.7519 167.456 84.1164C168.975 83.481 171.622 82.8455 175.684 81.6447C179.744 80.4439 189.349 73.8409 190.055 73.2408C190.761 72.6401 191.82 72.8167 193.869 71.4398C195.917 70.0624 197.152 68.3321 197.505 67.9788C197.858 67.626 199.112 66.2314 199.588 65.9487C200.065 65.666 202.307 64.4481 202.555 64.0954C202.802 63.742 202.801 63.3357 202.801 63.3357C202.801 63.3357 202.924 63.0536 202.748 62.8769C202.572 62.7002 201.901 62.9652 201.654 63.0182C201.406 63.0712 200.559 63.3357 200.171 63.4063C199.782 63.477 198.317 64.2538 197.928 64.4835C197.54 64.7132 198.616 63.6007 198.846 63.3003C199.076 63.0006 200.118 62.2238 200.877 61.7998C201.636 61.3763 202.571 60.8822 202.686 60.6434C202.801 60.4052 202.827 60.1225 202.809 60.0786C202.792 60.0342 202.854 59.8313 202.783 59.6193C202.712 59.4072 202.571 59.4164 201.962 59.6107C201.353 59.8045 200.584 59.9196 199.913 60.1669C199.242 60.4137 197.759 61.4732 197.759 61.4732C197.759 61.4732 198.094 61.1022 198.377 60.8201C198.66 60.5374 199.401 59.9019 200.001 59.4602C200.602 59.0191 201.731 58.0833 201.802 57.7482C201.872 57.4125 201.713 57.1299 201.713 57.1299C201.713 57.1299 201.679 56.8478 201.414 56.6534C201.149 56.4591 201.06 56.6705 200.16 57.0239C199.259 57.3772 197.829 58.207 197.176 58.5427C196.523 58.8778 195.057 60.6787 194.915 60.6434C194.774 60.6081 195.675 58.9661 196.046 58.2953C196.417 57.6246 197.211 56.7942 197.635 56.4414C198.059 56.0881 198.712 55.0024 198.712 54.7465C198.712 54.4906 198.623 54.3846 198.623 54.3846C198.623 54.3846 198.561 54.164 198.473 54.005C198.385 53.846 198.067 53.7224 197.873 53.8637C197.679 54.005 196.451 55.1791 195.657 55.7262C194.862 56.2739 194.58 56.609 194.298 56.9977C194.015 57.3858 192.505 59.7167 192.505 59.7167C192.505 59.7167 192.443 58.0657 192.16 57.6508C191.878 57.2359 191.728 57.2627 191.631 57.2091C191.534 57.1567 191.084 56.9093 190.863 57.1743C190.642 57.4388 190.695 59.0106 190.271 60.1402C189.848 61.2703 189.282 61.4116 188.541 62.4711C187.799 63.53 188.047 66.9552 187.976 67.2025C187.905 67.4499 187.835 67.5205 186.387 68.2267C184.94 68.9328 177.983 71.7579 176.535 71.6165C175.087 71.4752 169.966 71.3692 169.966 71.3692C169.966 71.3692 170.32 67.5912 169.614 65.3309C168.907 63.0712 166.788 61.5883 166.682 61.2703C166.576 60.9529 167.424 58.9399 167.177 56.5035C166.929 54.0666 165.693 52.1602 165.693 52.1602C165.693 52.1602 166.929 50.8893 167.6 50.3946C168.271 49.9005 170.778 49.2645 171.626 49.1591C172.473 49.0531 174.026 49.6885 175.545 50.748C177.063 51.8069 177.381 51.0654 178.229 50.0772C179.076 49.0884 179.005 48.4706 179.005 48.4706C179.005 48.4706 179.04 48.4529 179.465 48.3469C179.888 48.2409 179.835 47.9936 179.888 47.6938C179.941 47.3935 179.658 47.2875 179.694 47.1108C179.73 46.9347 180.471 46.8988 180.718 46.6697C180.965 46.44 180.788 46.122 180.841 45.7515C180.894 45.3805 181.194 45.0984 181.635 45.1332C182.077 45.1685 183.366 45.3452 183.525 44.7627C183.684 44.1797 183.118 41.5142 183.012 41.0902C182.906 40.6668 183.224 39.6426 183.93 39.0773C184.637 38.5125 184.919 37.3824 184.884 36.3941C184.848 35.4053 184.671 30.2852 182.129 28.1663C176.796 23.7215 167.279 23.8064 164.968 31.6274C164.05 34.7345 164.049 35.5472 163.307 37.0302C162.566 38.5131 161.507 39.9612 161.507 39.9612C161.507 39.9612 160.518 39.8199 158.399 39.2551C156.281 38.6903 154.162 38.6903 153.809 38.6903C153.456 38.6903 151.408 37.1367 147.735 35.5125C144.063 33.8876 138.377 33.3234 137.671 33.0408C136.965 32.7587 136.329 32.3346 135.552 32.3346C134.775 32.3346 134.034 32.8994 132.657 33.1468C131.279 33.3941 126.407 33.9942 121.322 36.3953C116.237 38.7969 111.682 41.7285 111.187 41.834C110.693 41.94 109.28 41.3752 107.974 41.2338C106.667 41.0925 106.314 41.6926 105.784 41.5866C105.255 41.4812 104.619 40.7397 104.125 40.2804C103.631 39.821 103.172 40.3157 102.783 41.0218C102.394 41.7285 103.171 43.1408 103.171 43.1408C103.171 43.1408 102.959 43.1761 102.394 43.0701C101.829 42.9641 101.441 42.7521 100.488 42.4346C99.5341 42.1166 97.3621 42.0465 97.0094 42.0289C96.656 42.0112 96.1619 42.1349 96.1619 42.1349C96.1619 42.1349 96.0382 42.1879 95.8792 42.1879C95.7202 42.1879 94.5901 42.2762 94.2897 42.417C93.99 42.5583 94.2544 42.8233 94.2544 42.8233C94.2544 42.8233 93.9193 43.106 93.778 43.318C93.6366 43.5294 93.4782 43.8121 94.3781 44.0595C95.2785 44.3068 96.709 44.1484 96.709 44.1484C96.709 44.1484 96.656 44.4658 96.815 44.7308C96.9735 44.9953 97.0795 45.0135 97.8033 45.1719C98.5276 45.3309 100.929 45.9664 101.847 46.8139C102.764 47.6613 103.153 48.4028 104.566 48.6148C105.978 48.8268 110.356 45.8256 110.356 45.8256C110.356 45.8256 110.851 45.649 112.51 45.5076C114.17 45.3663 119.149 43.6007 121.762 43.1066C124.375 42.6125 128.824 42.4005 131.578 42.3651C134.332 42.3298 136.416 41.553 136.416 41.553C136.416 41.553 136.663 41.8351 137.369 42.7532C138.076 43.6714 140.829 45.2603 141.253 45.437ZM54.6397 141.323C54.5525 141.34 54.4989 141.335 54.4989 141.335C54.4989 141.335 55.2199 140.254 54.6397 141.323Z" fill="#FC916A"/>
</g>
<defs>
<radialGradient id="paint0_radial_114_43" cx="0" cy="0" r="1" gradientUnits="userSpaceOnUse" gradientTransform="translate(220.546 151.059) scale(220.548 11.2147)">
<stop stop-color="#2C2C25"/>
<stop offset="0.13687" stop-color="#2C2C25"/>
<stop offset="0.483517" stop-color="#212218"/>
<stop offset="1" stop-color="white"/>
</radialGradient>
<radialGradient id="paint1_radial_114_43" cx="0" cy="0" r="1" gradientUnits="userSpaceOnUse" gradientTransform="translate(85.472 154.44) scale(85.469 7.83431)">
<stop stop-color="#2C2C25"/>
<stop offset="0.13687" stop-color="#2C2C25"/>
<stop offset="0.483517" stop-color="#212218"/>
<stop offset="1" stop-color="white"/>
</radialGradient>
<radialGradient id="paint2_radial_114_43" cx="0" cy="0" r="1" gradientUnits="userSpaceOnUse" gradientTransform="translate(182.977 151.069) scale(53.4504 6.07563)">
<stop stop-color="#2C2C25"/>
<stop offset="0.13687" stop-color="#2C2C25"/>
<stop offset="0.483517" stop-color="#212218"/>
<stop offset="1" stop-color="white"/>
</radialGradient>
<radialGradient id="paint3_radial_114_43" cx="0" cy="0" r="1" gradientUnits="userSpaceOnUse" gradientTransform="translate(349.426 144.854) scale(53.4504 6.07563)">
<stop stop-color="#2C2C25"/>
<stop offset="0.13687" stop-color="#2C2C25"/>
<stop offset="0.483517" stop-color="#212218"/>
<stop offset="1" stop-color="white"/>
</radialGradient>
<radialGradient id="paint4_radial_114_43" cx="0" cy="0" r="1" gradientUnits="userSpaceOnUse" gradientTransform="translate(238.164 150.929) scale(66.2829 6.07566)">
<stop stop-color="#2C2C25"/>
<stop offset="0.13687" stop-color="#2C2C25"/>
<stop offset="0.483517" stop-color="#212218"/>
<stop offset="1" stop-color="white"/>
</radialGradient>
<radialGradient id="paint5_radial_114_43" cx="0" cy="0" r="1" gradientUnits="userSpaceOnUse" gradientTransform="translate(316.077 150.929) scale(99.6261 6.07567)">
<stop stop-color="#2C2C25"/>
<stop offset="0.13687" stop-color="#2C2C25"/>
<stop offset="0.483517" stop-color="#212218"/>
<stop offset="1" stop-color="white"/>
</radialGradient>
</defs>
</svg>
