<svg width="16" height="16" viewBox="0 0 16 16" fill="none" xmlns="http://www.w3.org/2000/svg">
<path d="M4.85891 3.27296C6.94866 3.09131 9.05026 3.0913 11.14 3.27296L12.1469 3.36048C12.8171 3.41875 13.3911 3.81853 13.6886 4.39038C13.7266 4.46353 13.6981 4.55211 13.628 4.59551L9.45066 7.18149C8.55479 7.73609 7.42506 7.74769 6.51794 7.21169L2.31272 4.72677C2.24478 4.68663 2.21359 4.60399 2.24421 4.53125C2.51632 3.88487 3.12807 3.42342 3.85209 3.36049L4.85891 3.27296Z" fill="white"/>
<path d="M2.24135 5.84461C2.13737 5.78317 2.00471 5.84929 1.99259 5.96945C1.82343 7.64655 1.86437 9.33949 2.11541 11.0089C2.24775 11.889 2.96603 12.5637 3.85265 12.6408L4.85947 12.7283C6.94922 12.91 9.05082 12.91 11.1406 12.7283L12.1474 12.6408C13.034 12.5637 13.7523 11.889 13.8846 11.0089C14.143 9.29089 14.1788 7.54782 13.9922 5.82287C13.979 5.70186 13.8442 5.63696 13.7406 5.70103L9.97762 8.03055C8.76548 8.78089 7.23708 8.79662 6.00976 8.07142L2.24135 5.84461Z" fill="white"/>
</svg>
