<svg width="12" height="12" viewBox="0 0 12 12" fill="none" xmlns="http://www.w3.org/2000/svg">
<path d="M1.33271 4.57255C2.61031 7.35513 4.88365 9.56746 7.70998 10.7668L8.16305 10.9687C9.19965 11.4305 10.4181 11.0797 11.0503 10.1373L11.6424 9.25486C11.8349 8.96793 11.7763 8.58146 11.5074 8.36453L9.49944 6.74466C9.20458 6.50673 8.77091 6.56219 8.54525 6.86659L7.92411 7.70479C6.33025 6.91853 5.03618 5.62453 4.24998 4.03065L5.08811 3.4095C5.39258 3.18389 5.44798 2.75021 5.21005 2.45529L3.59017 0.447326C3.37327 0.178473 2.98693 0.119826 2.70002 0.312206L1.81146 0.908006C0.863232 1.54381 0.514312 2.77237 0.986799 3.81167L1.33219 4.57142L1.33271 4.57255Z" fill="white"/>
</svg>
