<svg width="16" height="16" viewBox="0 0 16 16" fill="none" xmlns="http://www.w3.org/2000/svg">
<path d="M8 2.5C6.61929 2.5 5.5 3.61929 5.5 5C5.5 6.38071 6.61929 7.5 8 7.5C9.38073 7.5 10.5 6.38071 10.5 5C10.5 3.61929 9.38073 2.5 8 2.5Z" fill="white"/>
<path d="M5.33398 8.83203C3.95327 8.83203 2.83398 9.9513 2.83398 11.332V12.1242C2.83398 12.6264 3.1979 13.0545 3.6935 13.1354C6.54605 13.6012 9.45525 13.6012 12.3078 13.1354C12.8034 13.0545 13.1673 12.6264 13.1673 12.1242V11.332C13.1673 9.9513 12.0481 8.83203 10.6673 8.83203H10.4401C10.3171 8.83203 10.1949 8.8515 10.0779 8.88963L9.50092 9.0781C8.52605 9.39636 7.47525 9.39636 6.50038 9.0781L5.92336 8.88963C5.80644 8.8515 5.68422 8.83203 5.56123 8.83203H5.33398Z" fill="white"/>
</svg>
