<svg width="30" height="28" viewBox="0 0 30 28" fill="none" xmlns="http://www.w3.org/2000/svg">
<path fill-rule="evenodd" clip-rule="evenodd" d="M12.7282 2.16589C13.7398 0.422481 16.2574 0.422495 17.269 2.16589L20.3671 7.50493C20.6527 7.99706 21.1462 8.3329 21.7088 8.41787L26.8532 9.19487C29.0957 9.53357 29.8823 12.365 28.1359 13.8118L24.3875 16.9173C23.8615 17.3531 23.6141 18.0407 23.7419 18.712L24.7919 24.2258C25.2032 26.3858 22.9357 28.064 20.9902 27.0395L15.8722 24.3448C15.3253 24.0568 14.6719 24.0568 14.125 24.3448L9.00697 27.0395C7.06146 28.064 4.79401 26.3858 5.20531 24.2258L6.25528 18.712C6.38308 18.0407 6.1357 17.3531 5.60959 16.9173L1.86124 13.8118C0.114805 12.365 0.90142 9.53357 3.1439 9.19487L8.28838 8.41787C8.85097 8.3329 9.34454 7.99706 9.6301 7.50493L12.7282 2.16589Z" fill="#FC916A"/>
</svg>
