<svg width="28" height="29" viewBox="0 0 28 29" fill="none" xmlns="http://www.w3.org/2000/svg">
<path fill-rule="evenodd" clip-rule="evenodd" d="M12.2547 1.10072C12.9035 0.707756 13.6476 0.5 14.4061 0.5C15.1646 0.5 15.9087 0.707756 16.5575 1.10072L18.0852 2.03522C20.2287 3.34547 22.67 3.63722 25.1225 3.93122C25.9152 4.02647 26.7087 4.12097 27.494 4.25072C27.494 4.25072 27.5112 5.62622 27.4932 6.25022L27.3365 11.6135C27.2015 16.2132 25.1562 20.5745 21.6477 23.744C19.9925 25.2387 18.2802 26.5895 16.313 27.7115C15.7332 28.0395 15.0832 28.2234 14.4176 28.2478C13.7519 28.2722 13.0902 28.1364 12.488 27.8517C10.2162 26.7717 8.20471 25.4022 6.36796 23.744C2.85946 20.5745 0.814208 16.2132 0.679958 11.6135L0.523958 6.26747C0.505208 5.63372 0.523958 4.25072 0.523958 4.25072C1.16146 4.17572 1.81096 4.11347 2.46571 4.05122C5.35546 3.77672 8.34121 3.49322 10.7907 1.99622L12.2555 1.10072H12.2547ZM12.5015 12.5007V7.25072H15.5015V12.5007H20.7515V15.5007H15.5015V20.7507H12.5015V15.5007H7.25146V12.5007H12.5015Z" fill="#FC916A"/>
</svg>
