<svg width="28" height="32" viewBox="0 0 28 32" fill="none" xmlns="http://www.w3.org/2000/svg">
<path fill-rule="evenodd" clip-rule="evenodd" d="M14.0016 0.442719C7.6352 0.442719 2.47416 5.60375 2.47416 11.9702C2.47416 14.3045 3.16802 16.4767 4.36073 18.292L0.248934 25.4138C0.0151096 25.8189 0.0395953 26.3231 0.31158 26.7036C0.583549 27.084 1.0528 27.2704 1.51169 27.1801L5.66774 26.3631L7.0382 30.3709C7.18952 30.8134 7.58554 31.1266 8.051 31.1719C8.51647 31.2172 8.96545 30.9864 9.19929 30.5812L13.3011 23.4767C13.5329 23.4907 13.7665 23.4977 14.0016 23.4977C14.2368 23.4977 14.4704 23.4907 14.7022 23.4767L18.8041 30.5812C19.0381 30.9867 19.4878 31.2177 19.9536 31.1718C20.4195 31.126 20.8154 30.8118 20.966 30.3685L22.3294 26.3525L26.489 27.1796C26.9482 27.271 27.4183 27.0852 27.691 26.7047C27.9637 26.324 27.9883 25.8192 27.7543 25.4138L23.6426 18.292C24.8352 16.4767 25.5291 14.3045 25.5291 11.9702C25.5291 5.60375 20.3681 0.442719 14.0016 0.442719ZM10.7958 23.0461C8.96259 22.5163 7.31724 21.5439 5.98314 20.2518L3.62644 24.3338L6.22921 23.8222C6.81441 23.7071 7.39461 24.0421 7.58758 24.6064L8.44585 27.1163L10.7958 23.0461ZM19.5536 27.1096L17.2075 23.0461C19.0406 22.5163 20.686 21.5439 22.0201 20.2518L24.373 24.3272L21.7689 23.8095C21.1821 23.6927 20.5996 24.029 20.4072 24.5957L19.5536 27.1096Z" fill="#FC916A"/>
</svg>
