<svg width="32" height="29" viewBox="0 0 32 29" fill="none" xmlns="http://www.w3.org/2000/svg">
<path d="M15.2944 13.9179C15.6833 14.329 16.3167 14.329 16.7111 13.9179L22.7611 7.57342C24.5167 5.72897 24.4167 2.67342 22.45 0.973419C20.7389 -0.509914 18.1889 -0.243247 16.6222 1.4012L16 2.0512L15.3833 1.40675C13.8167 -0.243247 11.2667 -0.509914 9.55556 0.973419C7.59444 2.67342 7.48889 5.72897 9.24444 7.57342L15.2944 13.9179ZM31.4056 18.229C30.75 17.6345 29.7278 17.6734 29.0389 18.229L23.9056 22.3345C23.2778 22.8401 22.4944 23.1123 21.6833 23.1123H15.1111C14.6222 23.1123 14.2222 22.7123 14.2222 22.2234C14.2222 21.7345 14.6222 21.3345 15.1111 21.3345H19.4611C20.3444 21.3345 21.1667 20.729 21.3111 19.8568C21.4944 18.7456 20.6389 17.779 19.5556 17.779H10.6667C9.16667 17.779 7.71667 18.2956 6.55 19.2401L3.96667 21.3345H0.888889C0.4 21.3345 0 21.7345 0 22.2234V27.5568C0 28.0456 0.4 28.4456 0.888889 28.4456H20.7111C21.5167 28.4456 22.3 28.1734 22.9333 27.6679L31.3333 20.9456C32.1778 20.2734 32.2444 18.9845 31.4056 18.229Z" fill="#FC916A"/>
</svg>
