<svg width="16" height="29" viewBox="0 0 16 29" fill="none" xmlns="http://www.w3.org/2000/svg">
<path fill-rule="evenodd" clip-rule="evenodd" d="M3.69913 0.194186C5.97394 -0.0647287 8.27075 -0.0647287 10.5455 0.194186L12.8727 0.459067C13.206 0.497009 13.5035 0.685787 13.6798 0.971207C13.856 1.25664 13.8916 1.60718 13.7764 1.92221L10.5635 10.6989H13.9993C14.3581 10.6989 14.6942 10.875 14.8986 11.1701C15.103 11.465 15.1497 11.8415 15.0235 12.1776L14.7457 12.9175C12.8184 18.0509 10.0935 22.8481 6.67152 27.1325L6.10158 27.8461C5.81158 28.2092 5.32363 28.3495 4.88498 28.1958C4.44633 28.0422 4.15269 27.628 4.15269 27.1633V16.7297H1.49566C0.928907 16.7297 0.455978 16.2969 0.405885 15.7323L0.226997 13.7166C-0.0756657 10.3061 -0.0756657 6.87555 0.226997 3.46508L0.405885 1.4494C0.451821 0.931748 0.855575 0.51784 1.37193 0.459067L3.69913 0.194186Z" fill="#FC916A"/>
</svg>
