<svg width="36" height="24" viewBox="0 0 36 24" fill="none" xmlns="http://www.w3.org/2000/svg">
<path d="M33.5529 22.109V17.7H34.2179L34.8359 17.089L27.5139 9.767H26.6049V11.036H24.4749L23.2059 9.767H19.6899L12.3759 17.081L12.9939 17.699H13.9729V22.108H12.0619C9.20385 19.374 8.44385 13.173 8.71085 8.56L8.75785 8.466H8.78085C10.0309 8.466 11.1389 9.072 11.8289 10.006L11.8359 10.016C12.3559 10.719 12.6689 11.604 12.6689 12.561C12.6689 13.221 12.5209 13.846 12.2549 14.405L12.2659 14.379C12.8239 14.2361 13.3427 13.9695 13.7839 13.599L13.7779 13.604C14.2371 13.2042 14.6053 12.7105 14.8573 12.1562C15.1094 11.6019 15.2395 10.9999 15.2389 10.391C15.2389 9.436 14.9249 8.55501 14.3949 7.84501L14.4029 7.85601C13.9481 7.22185 13.305 6.74723 12.5649 6.49965C11.8249 6.25208 11.0257 6.24415 10.2809 6.47701L10.3069 6.47001C10.5719 6.30501 10.8769 6.15901 11.1979 6.04801L11.2299 6.038C11.6661 5.87686 12.1278 5.79523 12.5929 5.79701C13.6759 5.79701 14.6569 6.23001 15.3739 6.93101L15.3729 6.93001C15.4791 6.36912 15.4472 5.79079 15.2799 5.24501L15.2869 5.27C15.121 4.78362 14.8579 4.33608 14.5136 3.95465C14.1693 3.57322 13.7509 3.26588 13.2839 3.05135C12.817 2.83683 12.3112 2.7196 11.7975 2.70682C11.2838 2.69404 10.7729 2.78596 10.2959 2.977L10.3209 2.968C10.0796 3.05118 9.84489 3.15247 9.61885 3.271L9.64785 3.257C9.57976 2.94426 9.47887 2.63958 9.34685 2.348L9.35885 2.377C8.47885 0.404005 6.46085 -0.527995 4.84785 0.287005C4.41225 0.509696 4.03796 0.835907 3.75785 1.237L3.75185 1.247C4.31955 1.30271 4.86641 1.4902 5.34887 1.79453C5.83133 2.09887 6.23607 2.51165 6.53085 3L6.53985 3.016C6.16566 2.82867 5.76962 2.6886 5.36085 2.599L5.32685 2.593C2.84685 2.06 0.486853 3.40701 0.0638527 5.60801C-0.0491706 6.21179 -0.0117346 6.83412 0.172853 7.42L0.165853 7.394C0.720409 6.76443 1.43814 6.30033 2.23982 6.05292C3.0415 5.80552 3.89595 5.78444 4.70885 5.992L4.67685 5.985C5.08585 6.071 5.44785 6.195 5.78685 6.35801L5.75785 6.34501C4.94653 6.23692 4.12142 6.3733 3.38803 6.7367C2.65464 7.1001 2.04631 7.674 1.64085 8.385L1.62985 8.405C1.20652 9.11815 0.984316 9.93268 0.986853 10.762C0.986853 12.33 1.76385 13.716 2.95485 14.556L2.96985 14.566C3.48234 14.9101 4.06706 15.1318 4.67885 15.214L4.69985 15.216C4.25865 14.485 4.02656 13.6469 4.02885 12.793C4.02885 11.92 4.26585 11.102 4.67985 10.401L4.66785 10.423C4.97541 9.88764 5.39712 9.4266 5.903 9.07264C6.40888 8.71868 6.98651 8.48049 7.59485 8.375L7.61985 8.371C6.20285 14.824 5.81085 19.32 6.97985 22.107H3.57385V23.987H35.7219V22.107H33.5529V22.109ZM25.6029 17.802H32.7689V22.109H25.6029V17.802ZM14.7419 16.948L19.6919 11.998L24.6419 16.948V22.109H19.2069V18.225H16.4579V22.109H14.7359V16.948H14.7419Z" fill="#FC916A"/>
</svg>
